<svg width="56" height="56" viewBox="0 0 56 56" fill="none" xmlns="http://www.w3.org/2000/svg">
<g clip-path="url(#clip0_140_6895)">
<path d="M55.9997 28.1713C55.9997 12.6103 43.4627 -0.00366211 27.9997 -0.00366211C12.5297 -0.000162109 -0.00732422 12.6103 -0.00732422 28.1748C-0.00732422 42.2343 10.2337 53.8893 23.6177 56.0033V36.3158H16.5127V28.1748H23.6247V21.9623C23.6247 14.9028 27.8072 11.0038 34.2017 11.0038C37.2677 11.0038 40.4702 11.5533 40.4702 11.5533V18.4833H36.9387C33.4632 18.4833 32.3782 20.6568 32.3782 22.8863V28.1713H40.1412L38.9022 36.3123H32.3747V55.9998C45.7587 53.8858 55.9997 42.2308 55.9997 28.1713Z" fill="white"/>
</g>
<defs>
<clipPath id="clip0_140_6895">
<rect width="56" height="56" fill="white"/>
</clipPath>
</defs>
</svg>
