<svg width="60" height="60" viewBox="0 0 60 60" fill="none" xmlns="http://www.w3.org/2000/svg">
<path d="M39.0008 30.0001C39.0008 32.387 38.0526 34.6762 36.3648 36.364C34.6769 38.0519 32.3878 39.0001 30.0008 39.0001C27.6139 39.0001 25.3247 38.0519 23.6368 36.364C21.949 34.6762 21.0008 32.387 21.0008 30.0001C21.0008 29.4871 21.0548 28.9861 21.1478 28.5001H18.0008V40.4911C18.0008 41.3251 18.6758 42.0001 19.5098 42.0001H40.4948C40.8945 41.9993 41.2775 41.8399 41.5599 41.557C41.8422 41.2741 42.0008 40.8908 42.0008 40.4911V28.5001H38.8538C38.9468 28.9861 39.0008 29.4871 39.0008 30.0001ZM30.0008 36.0001C30.7889 35.9999 31.5693 35.8444 32.2974 35.5427C33.0254 35.2409 33.6869 34.7986 34.2441 34.2412C34.8012 33.6838 35.2431 33.0221 35.5445 32.2939C35.846 31.5657 36.001 30.7852 36.0008 29.9971C36.0006 29.2089 35.8452 28.4286 35.5434 27.7005C35.2416 26.9725 34.7994 26.311 34.2419 25.7538C33.6845 25.1967 33.0228 24.7548 32.2946 24.4533C31.5664 24.1519 30.7859 23.9969 29.9978 23.9971C28.4061 23.9975 26.8798 24.6302 25.7545 25.7559C24.6293 26.8817 23.9974 28.4084 23.9978 30.0001C23.9982 31.5918 24.6309 33.1181 25.7567 34.2433C26.8824 35.3686 28.4091 36.0005 30.0008 36.0001ZM37.2008 23.7001H40.7978C41.0368 23.7001 41.266 23.6053 41.4353 23.4367C41.6045 23.268 41.7 23.039 41.7008 22.8001V19.2031C41.7008 18.9636 41.6057 18.7339 41.4363 18.5646C41.267 18.3952 41.0373 18.3001 40.7978 18.3001H37.2008C36.9613 18.3001 36.7316 18.3952 36.5623 18.5646C36.3929 18.7339 36.2978 18.9636 36.2978 19.2031V22.8001C36.3008 23.2951 36.7058 23.7001 37.2008 23.7001ZM30.0008 1.20007C22.3626 1.20007 15.0372 4.23435 9.63613 9.6354C4.23508 15.0364 1.20081 22.3618 1.20081 30.0001C1.20081 37.6383 4.23508 44.9637 9.63613 50.3647C15.0372 55.7658 22.3626 58.8001 30.0008 58.8001C33.7829 58.8001 37.5279 58.0551 41.0221 56.6078C44.5163 55.1605 47.6912 53.0391 50.3655 50.3647C53.0398 47.6904 55.1612 44.5155 56.6085 41.0214C58.0559 37.5272 58.8008 33.7821 58.8008 30.0001C58.8008 26.218 58.0559 22.473 56.6085 18.9788C55.1612 15.4846 53.0398 12.3097 50.3655 9.6354C47.6912 6.96107 44.5163 4.83968 41.0221 3.39234C37.5279 1.94501 33.7829 1.20007 30.0008 1.20007ZM45.0008 41.6671C45.0008 43.5001 43.5008 45.0001 41.6678 45.0001H18.3338C16.5008 45.0001 15.0008 43.5001 15.0008 41.6671V18.3331C15.0008 16.5001 16.5008 15.0001 18.3338 15.0001H41.6678C43.5008 15.0001 45.0008 16.5001 45.0008 18.3331V41.6671Z" fill="white"/>
</svg>
