<svg width="48" height="48" viewBox="0 0 48 48" fill="none" xmlns="http://www.w3.org/2000/svg">
<path d="M10 44H38C39.0609 44 40.0783 43.5786 40.8284 42.8284C41.5786 42.0783 42 41.0609 42 40V22C42.0015 21.7368 41.9511 21.4759 41.8515 21.2322C41.752 20.9885 41.6054 20.7669 41.42 20.58L25.42 4.58C25.0453 4.2075 24.5384 3.99841 24.01 3.99841C23.4816 3.99841 22.9747 4.2075 22.6 4.58L6.6 20.58C6.41102 20.7652 6.26068 20.9861 6.15769 21.2299C6.0547 21.4736 6.0011 21.7354 6 22V40C6 41.0609 6.42143 42.0783 7.17157 42.8284C7.92172 43.5786 8.93913 44 10 44ZM20 40V30H28V40H20ZM10 22.82L24 8.82L38 22.82V40H32V30C32 28.9391 31.5786 27.9217 30.8284 27.1716C30.0783 26.4214 29.0609 26 28 26H20C18.9391 26 17.9217 26.4214 17.1716 27.1716C16.4214 27.9217 16 28.9391 16 30V40H10V22.82Z" fill="black"/>
</svg>
