<svg width="62" height="62" viewBox="0 0 62 62" fill="none" xmlns="http://www.w3.org/2000/svg">
<path d="M31 3.875C16.0207 3.875 3.875 16.0207 3.875 31C3.875 45.9793 16.0207 58.125 31 58.125C45.9793 58.125 58.125 45.9793 58.125 31C58.125 16.0207 45.9793 3.875 31 3.875ZM44.0357 24.3217C44.0539 24.6063 44.0539 24.9029 44.0539 25.1936C44.0539 34.0818 37.2848 44.3203 24.915 44.3203C21.1006 44.3203 17.5646 43.2123 14.5857 41.3051C15.1307 41.3656 15.6514 41.3898 16.2084 41.3898C19.3568 41.3898 22.251 40.3242 24.5578 38.5199C21.6031 38.4594 19.1207 36.5219 18.273 33.8578C19.3084 34.0092 20.2408 34.0092 21.3064 33.7367C19.7851 33.4276 18.4176 32.6014 17.4364 31.3983C16.4552 30.1952 15.9207 28.6896 15.9238 27.1371V27.0523C16.8139 27.5549 17.8613 27.8637 18.9572 27.9061C18.036 27.2921 17.2804 26.4603 16.7576 25.4844C16.2348 24.5085 15.9609 23.4186 15.9602 22.3115C15.9602 21.0582 16.2871 19.9139 16.8744 18.9209C18.5631 20.9997 20.6703 22.6999 23.0591 23.911C25.4478 25.122 28.0647 25.8169 30.7396 25.9504C29.7891 21.3791 33.2039 17.6797 37.309 17.6797C39.2465 17.6797 40.9902 18.491 42.2193 19.7988C43.7391 19.5143 45.1922 18.9451 46.4879 18.1822C45.9854 19.7383 44.9318 21.0521 43.5332 21.8816C44.8895 21.7363 46.1973 21.3609 47.4082 20.8342C46.4939 22.1783 45.3496 23.3711 44.0357 24.3217Z" fill="white"/>
</svg>
